# xmcd
#
# Track frame offsets: 
#        150
#        15004
#        33871
#        50150
#        68604
#        92496
#        111550
#        130379
#        146845
#        160124
#        178803
#        193244
#
# Disc length: 2748 seconds
#
# Revision: 0
# Processed by: cddbd v1.5.1PL2 Copyright (c) Steve Scherf et al.
# Submitted via: ExactAudioCopy v0.95b3
#
DISCID=a50aba0c
DTITLE=Sherman Doucette - Harp and Soul
DYEAR=2004
DGENRE=Blues
TTITLE0=Harp and Soul
TTITLE1=Midnight Moan
TTITLE2=Low-down Broken Man
TTITLE3=Mumbo Jumbo
TTITLE4=Power Of The Blues
TTITLE5=Tankful Of Blues
TTITLE6=Sugar Coated Love
TTITLE7=Howlin For My Darlin
TTITLE8=Blowin Through Town
TTITLE9=Situation Blues
TTITLE10=Cajun Mud
TTITLE11=Sideways
EXTD=
EXTT0=
EXTT1=
EXTT2=
EXTT3=
EXTT4=
EXTT5=
EXTT6=
EXTT7=
EXTT8=
EXTT9=
EXTT10=
EXTT11=
PLAYORDER=
